<?xml version="1.0" encoding="UTF-8"?>
<svg xmlns="http://www.w3.org/2000/svg" xmlns:xlink="http://www.w3.org/1999/xlink" viewBox="0 0 494.48 201.72">
  <defs>
    <style>
      .cls-1 {
        fill: #ca5027;
        font-size: 46.33px;
      }

      .cls-1, .cls-2 {
        font-family: Fredoka-Bold, Fredoka;
        font-weight: 700;
      }

      .cls-3 {
        fill: #f78f2c;
      }

      .cls-3, .cls-4, .cls-5, .cls-6 {
        stroke-width: 0px;
      }

      .cls-4 {
        fill: url(#linear-gradient);
      }

      .cls-5 {
        fill: none;
      }

      .cls-6, .cls-2 {
        fill: #f6892d;
      }

      .cls-2 {
        font-size: 106.48px;
      }
    </style>
    <linearGradient id="linear-gradient" x1="104.48" y1="60.51" x2="104.48" y2="192.16" gradientUnits="userSpaceOnUse">
      <stop offset=".09" stop-color="#fdc70c"/>
      <stop offset=".25" stop-color="#f8ae22"/>
      <stop offset=".41" stop-color="#f59d32"/>
      <stop offset=".59" stop-color="#f3933b"/>
      <stop offset=".8" stop-color="#f3903f"/>
    </linearGradient>
  </defs>
  <g id="Layer_7" data-name="Layer 7">
    <path class="cls-5" d="m131.51,135.09c-11.34,5.73-21.15,9.93-28.58,12.91"/>
    <text class="cls-2" transform="translate(180.96 116.56)"><tspan x="0" y="0">chewz</tspan></text>
  </g>
  <g id="Layer_6" data-name="Layer 6">
    <g id="Layer_5" data-name="Layer 5">
      <g>
        <path class="cls-4" d="m161.83,40.76v-.02c-.6-1.5-.76-2.67-.8-2.89-3.61,1.88-7.64,2.46-11.32,1.68-1.7-.36-3.31-1-4.79-1.94-4.97-3.21-7.62-9.44-6.79-15.83.2-1.64.66-3.29,1.36-4.91-.96-.1-5.05-.64-8.14-4.23-3.69-4.29-2.97-9.42-2.85-10.18C124.76,1.34,119.16.04,112.31,0c-23.81-.12-47.58,14.91-58.52,36.64-6.21,12.37-6.61,23.63-6.73,28.54-.66,26.76,13.87,46.22,25.33,61.57,5.23,6.99,13.07,16.29,24.21,25.83,12.13-6.17,29.5-17.5,43.57-37.38,20.34-28.74,22.23-58.94,21.66-74.45Zm-49.44,60.18c-11.42,0-21.58-5.23-28.04-13.35-4.61-5.79-7.36-13.03-7.36-20.92,0-18.92,15.85-34.27,35.41-34.27,11.6,0,21.89,5.39,28.34,13.73,4.43,5.73,7.07,12.83,7.07,20.54,0,18.92-15.85,34.27-35.41,34.27Z"/>
        <path class="cls-6" d="m133.29,147.22c-4.29,4.19-11.26,10.56-20.8,17.42-5.91-3.97-11.2-8.04-15.89-12.06,12.13-6.17,29.5-17.5,43.57-37.38,3.85-5.44,14.8-21.97,19.52-46.3,2.2-11.34,2.41-21.11,2.13-28.15.32.82,1.66,4.01,5.19,5.83,3.91,2.02,7.68.92,8.48.68.52,1.94,1.6,6.45,2.04,12.23,3.17,41.49-32.57,76.36-44.25,87.72Z"/>
        <path class="cls-5" d="m161.83,40.76v-.02c-.14-3.51-.4-6.27-.6-8.08"/>
        <text class="cls-1" transform="translate(96.6 81.58) scale(1.15 1)"><tspan x="0" y="0">Z</tspan></text>
        <path class="cls-5" d="m164.16,66.66c0,28.6-23.17,51.77-51.77,51.77-17.02,0-32.13-8.2-41.57-20.9l83.43-61.35c6.25,8.54,9.92,19.06,9.92,30.48Z"/>
        <path class="cls-5" d="m154.24,36.19l-4.53,3.33c-1.7-.36-3.31-1-4.79-1.94-4.97-3.21-7.62-9.44-6.79-15.83,6.33,3.61,11.82,8.54,16.11,14.43Z"/>
        <path class="cls-5" d="m140.73,46.13l-56.38,41.45c-4.61-5.79-7.36-13.03-7.36-20.92,0-18.92,15.85-34.27,35.41-34.27,11.6,0,21.89,5.39,28.34,13.73Z"/>
        <path class="cls-3" d="m149.71,39.52l-8.98,6.61c-6.45-8.34-16.75-13.73-28.34-13.73-19.56,0-35.41,15.35-35.41,34.27,0,7.88,2.75,15.13,7.36,20.92l-13.53,9.96c-6.41-8.6-10.2-19.3-10.2-30.88,0-28.6,23.17-51.77,51.77-51.77,9.38,0,18.16,2.49,25.75,6.87-.84,6.39,1.82,12.61,6.79,15.83,1.48.94,3.09,1.58,4.79,1.94Z"/>
      </g>
    </g>
  </g>
</svg>