<svg xmlns="http://www.w3.org/2000/svg" xmlns:xlink="http://www.w3.org/1999/xlink" viewBox="89.21 0 387.2 453.21">
  <defs>
    <style>
      .cls-1 {
        fill: #f78f2c;
      }

      .cls-1, .cls-2, .cls-3, .cls-4 {
        stroke-width: 0px;
      }

      .cls-2 {
        fill: url(#linear-gradient);
      }

      .cls-5 {
        font-size: 136.48px;
      }

      .cls-5, .cls-6 {
        font-family: Fredoka-Bold, Fredoka;
        font-weight: 700;
      }

      .cls-5, .cls-4 {
        fill: #f6892d;
      }

      .cls-3 {
        fill: none;
      }

      .cls-6 {
        fill: #ca5027;
        font-size: 90.17px;
      }
    </style>
    <linearGradient id="linear-gradient" x1="277.42" y1="117.76" x2="277.42" y2="373.98" gradientUnits="userSpaceOnUse">
      <stop offset=".09" stop-color="#fdc70c"/>
      <stop offset=".25" stop-color="#f8ae22"/>
      <stop offset=".41" stop-color="#f59d32"/>
      <stop offset=".59" stop-color="#f3933b"/>
      <stop offset=".8" stop-color="#f3903f"/>
    </linearGradient>
  </defs>
  <g id="Layer_7" data-name="Layer 7">
    <path class="cls-3" d="m202.85,253.16c-22.06,11.15-41.17,19.33-55.61,25.13"/>
    <text class="cls-5" transform="translate(89.21 421.21)"><tspan x="0" y="0">chewz</tspan></text>
  </g>
  <g id="Layer_6" data-name="Layer 6">
    <g id="Layer_5" data-name="Layer 5">
      <g>
        <path class="cls-2" d="m389.03,79.32v-.04c-1.17-2.91-1.48-5.21-1.55-5.63-7.03,3.65-14.88,4.78-22.02,3.26-3.3-.7-6.45-1.94-9.32-3.77-9.67-6.25-14.84-18.37-13.21-30.8.39-3.19,1.28-6.41,2.64-9.56-1.86-.19-9.83-1.24-15.85-8.24-7.19-8.35-5.79-18.33-5.55-19.81C316.9,2.6,305.99.08,292.66,0c-46.34-.23-92.6,29.02-113.89,71.32-12.08,24.08-12.86,45.99-13.09,55.55-1.28,52.09,27,89.96,49.29,119.83,10.18,13.6,25.44,31.7,47.12,50.26,23.62-12,57.41-34.07,84.8-72.75,39.58-55.94,43.27-114.71,42.15-144.89Zm-96.22,117.11c-22.22,0-41.99-10.18-54.58-25.99-8.97-11.26-14.33-25.37-14.33-40.71,0-36.82,30.84-66.7,68.91-66.7,22.57,0,42.61,10.49,55.16,26.72,8.62,11.15,13.75,24.98,13.75,39.97,0,36.82-30.84,66.7-68.91,66.7Z"/>
        <path class="cls-4" d="m333.49,286.51c-8.35,8.16-21.91,20.55-40.48,33.91-11.5-7.73-21.79-15.65-30.92-23.46,23.62-12,57.41-34.07,84.8-72.75,7.5-10.59,28.8-42.76,38-90.11,4.29-22.08,4.7-41.08,4.15-54.78.62,1.6,3.23,7.8,10.1,11.34,7.61,3.92,14.95,1.79,16.51,1.32,1.01,3.77,3.11,12.55,3.96,23.81,6.18,80.76-63.39,148.62-86.12,170.72Z"/>
        <path class="cls-3" d="m389.03,79.32v-.04c-.27-6.84-.78-12.2-1.17-15.73"/>
        <text class="cls-6" transform="translate(262.09 158.77) scale(1.15 1)"><tspan x="0" y="0">Z</tspan></text>
        <path class="cls-3" d="m393.58,129.74c0,55.66-45.1,100.76-100.76,100.76-33.13,0-62.54-15.96-80.91-40.67l162.37-119.41c12.16,16.63,19.31,37.1,19.31,59.31Z"/>
        <path class="cls-3" d="m374.27,70.43l-8.82,6.49c-3.3-.7-6.45-1.94-9.32-3.77-9.67-6.25-14.84-18.37-13.21-30.8,12.31,7.03,23,16.63,31.35,28.08Z"/>
        <path class="cls-3" d="m347.98,89.77l-109.73,80.68c-8.97-11.26-14.33-25.37-14.33-40.71,0-36.82,30.84-66.7,68.91-66.7,22.57,0,42.61,10.49,55.16,26.72Z"/>
        <path class="cls-1" d="m365.46,76.91l-17.48,12.86c-12.55-16.24-32.59-26.72-55.16-26.72-38.07,0-68.91,29.87-68.91,66.7,0,15.34,5.36,29.44,14.33,40.71l-26.34,19.38c-12.47-16.74-19.85-37.56-19.85-60.09,0-55.66,45.1-100.76,100.76-100.76,18.26,0,35.35,4.86,50.11,13.36-1.63,12.43,3.53,24.55,13.21,30.8,2.87,1.83,6.02,3.07,9.32,3.77Z"/>
      </g>
    </g>
  </g>
</svg>